# xmcd
#
# Track frame offsets:
#	150
#	15556
#	25924
#	37946
#	54659
#	75378
#	89760
#	103360
#	124618
#	141275
#	157155
#	174950
#	192790
#	208255
#	224890
#
# Disc length: 3206 seconds
#
# Revision: 0
# Processed by: cddbd v1.5.2PL0 Copyright (c) Steve Scherf et al.
# Submitted via: EasyCDDAExtractor 16.0.6.1
#
DISCID=d80c840f
DTITLE=Συλλογικός δίσκος - Τα πανηγύρια τού Αιγαίου 1
DYEAR=2013
DGENRE=Παραδοσιακή
TTITLE0=Παπαντωνίου Ζαφειρία - Μέσ' στού Αιγαίου τα νησιά [αιγαιοπελαγίτικο]
TTITLE1=Σινοπούλου Ουρανία - Δώσ' του πέρα, δώσ' του πέρα [Ικαρία]
TTITLE2=Ράλλης Στρατής - Πάρε Μαριώ τη ρόκα σου [πανελλήνιο, εκδοχή Λέσβου]
TTITLE3=Δερέμπεη Ειρήνη - Ήλιε μου στο βασιλεμό [Ικαρία]
TTITLE4=Γερασκλής Στέλιος - Θαλασσάκι [αιγαιοπελαγίτικο]
TTITLE5=Παπαστεφάνου Αμαλία - Τζιβαέρι [Λέρος και Κάλυμνος]
TTITLE6=Βασιλαράκης Ηλίας - Τηλιακή σούστα [Τήλος]
TTITLE7=Λαρδόπουλος Φίλ.-Φιλίππου Ελ.-Αθανασίου Ν. - Άη μου Παντελέμονα [Τήλος
TTITLE7=]
TTITLE8=Παυλίδης Γιάννης - Στα μάρμαρα τού Γαλατά [Κάρπαθος]
TTITLE9=Παππούλη Άννα Μαρία - Το μελαχροινό [Κως]
TTITLE10=Σινοπούλου Ουρανία - Ο μπαρμπα Μαθιός ]Σάμος]
TTITLE11=Τσούρου Δέσποινα - Δώδεκα χρονώ κορίτσι [Λέσβος]
TTITLE12=Συνεσίου Δημήτρης - Πελαγιούλα [Κως και Λέρος]
TTITLE13=Παππούλη Άννα Μαρία - Δυοσμαράκι [Δωδεκανησιακό]
TTITLE14=Περσελής Δημήτρης - Πισωμέρι [Κάσος]
EXTD=
EXTT0=
EXTT1=
EXTT2=
EXTT3=
EXTT4=
EXTT5=
EXTT6=
EXTT7=
EXTT8=
EXTT9=
EXTT10=
EXTT11=
EXTT12=
EXTT13=
EXTT14=
PLAYORDER=
